<svg xmlns="http://www.w3.org/2000/svg" viewBox="0 0 512 512"><circle cx="256" cy="256" r="256" fill="#f0f0f0"/><path d="M509.833 222.609h-220.44-.001V2.167C278.461.744 267.317 0 256 0a258.53 258.53 0 0 0-33.391 2.167v220.44.001H2.167C.744 233.539 0 244.683 0 256a258.53 258.53 0 0 0 2.167 33.391h220.44.001v220.442C233.539 511.256 244.683 512 256 512a258.35 258.35 0 0 0 33.391-2.167v-220.44-.001h220.442C511.256 278.461 512 267.319 512 256a258.53 258.53 0 0 0-2.167-33.391zM155.826 122.435V89.043h-33.391v33.392H89.043v33.391h33.392v33.391h33.391v-33.391h33.391v-33.391zm233.739 0V89.043h-33.391v33.392h-33.391v33.391h33.391v33.391h33.391v-33.391h33.392v-33.391zM155.826 356.174v-33.391h-33.391v33.391H89.043v33.391h33.392v33.392h33.391v-33.392h33.391v-33.391zm233.739 0v-33.391h-33.391v33.391h-33.391v33.391h33.391v33.392h33.391v-33.392h33.392v-33.391z" fill="#d80027"/></svg>