<svg xmlns="http://www.w3.org/2000/svg" viewBox="0 0 512 512"><circle cx="256" cy="256" r="256" fill="#f0f0f0"/><path d="M8.819 322.783c14.812 54.959 47.457 102.593 91.355 136.322V322.783H8.819zm224.92 188.243A259.29 259.29 0 0 0 256 512c118.279 0 217.805-80.221 247.181-189.217H233.739v188.243zm269.442-321.809C473.805 80.221 374.279 0 256 0a259.29 259.29 0 0 0-22.261.974v188.243h269.442zM100.174 52.895c-43.898 33.73-76.543 81.363-91.355 136.322h91.355V52.895z" fill="#d80027"/><path d="M509.833 222.609H200.349h-.001V6.085c-23.658 5.246-46.087 13.749-66.783 25.042v191.48.001H2.167A258.2 258.2 0 0 0 0 256c0 11.317.742 22.461 2.167 33.391h131.397.001v191.481c20.696 11.292 43.125 19.797 66.783 25.042v-216.52-.002h309.485C511.256 278.461 512 267.317 512 256a258.53 258.53 0 0 0-2.167-33.391z" fill="#0052b4"/></svg>