<svg xmlns="http://www.w3.org/2000/svg" xmlns:xlink="http://www.w3.org/1999/xlink" viewBox="0 0 512 512"><circle cx="256" cy="256" r="256" fill="#f0f0f0"/><path d="M345.043 256c0 22.261-39.866 77.913-89.043 77.913S166.957 278.261 166.957 256c0-49.178 39.866-89.043 89.043-89.043s89.043 39.865 89.043 89.043z" fill="#d80027"/><path d="M345.043,256c0,49.178-39.866,89.043-89.043,89.043S166.957,305.178,166.957,256" fill="#0052b4"/><use xlink:href="#B"/><use xlink:href="#B" x="-39.357" y="39.354"/><use xlink:href="#B" x="47.228" y="47.212"/><use xlink:href="#B" x="7.872" y="86.573"/><use xlink:href="#B" x="23.613" y="23.608"/><use xlink:href="#B" x="-15.733" y="62.962"/><path d="M397.678 177.289l-62.962-62.962 15.741-15.741 62.962 62.962zm-62.965-15.731l-23.611-23.611 15.74-15.74 23.611 23.611zm39.347 39.349l-23.611-23.611 15.74-15.74 23.611 23.611zm7.855-86.571l-23.611-23.611 15.741-15.741 23.611 23.611zm39.368 39.352l-23.611-23.611 15.741-15.741 23.611 23.611zm-330.56 204.63l62.962 62.962-15.741 15.741-62.962-62.962zm62.957 15.733l23.611 23.611-15.74 15.74-23.611-23.611zm-39.349-39.348l23.611 23.611-15.741 15.741-23.611-23.611zm23.612-23.612l62.962 62.962-15.741 15.741-62.962-62.962zM153.684 90.72l-62.962 62.962-15.741-15.741 62.962-62.962zm23.603 23.605l-62.962 62.962-15.741-15.741 62.962-62.962zm23.625 23.622l-62.962 62.962-15.74-15.74 62.962-62.962z"/><defs ><path id="B" d="M350.442 334.705l23.611-23.611 15.741 15.741-23.611 23.611z"/></defs></svg>