<svg width="276" height="310" viewBox="0 0 276 310" fill="none" xmlns="http://www.w3.org/2000/svg">
<g clip-path="url(#clip0)">
<path fill-rule="evenodd" clip-rule="evenodd" d="M173.657 70.0149C173.463 70.0099 173.267 70.005 173.071 70H133.935C108.317 71.378 97.5478 86.2171 94.6586 94.1199C83.4319 127.671 76.446 171.127 71.4032 202.496C71.3048 203.108 71.2072 203.716 71.1103 204.318L69.4719 219.227C69.3747 221.582 69.5953 224.13 70.2315 226.606C73.3782 235.702 82.8661 243.364 103.769 235.731L103.771 235.743C123.517 227.158 146.841 216.489 170.961 204.52C184.693 196.603 204.809 178.402 205.841 155.412C205.655 138.36 205.082 120.482 203.92 103.084L203.913 103.097L203.913 102.977C203.817 101.548 203.718 99.8944 203.614 98.1731C203.415 94.8671 203.201 91.311 202.971 88.6148C202.63 86.7457 202.193 85.056 201.654 83.5294C198.304 76.076 191.74 72.4819 184.816 70.7632C181.659 70.2173 177.78 70.1192 173.657 70.0149ZM172.164 104.725C172.164 102.791 170.596 101.223 168.661 101.223C146.417 101.223 128.384 119.256 128.384 141.5V154.756C128.384 166.712 118.691 176.405 106.735 176.405C104.742 176.405 103.127 178.02 103.127 180.013V190.979C103.127 192.913 104.695 194.482 106.629 194.482C128.874 194.482 146.906 176.449 146.906 154.204V140.949C146.906 128.992 156.599 119.3 168.556 119.3C170.548 119.3 172.164 117.684 172.164 115.691V104.725Z" fill="#178A9E"/>
<path d="M168.662 101.223C170.596 101.223 172.164 102.791 172.164 104.726V115.691C172.164 117.684 170.548 119.3 168.556 119.3V119.3C156.599 119.3 146.906 128.992 146.906 140.949V154.204C146.906 176.449 128.874 194.482 106.629 194.482V194.482C104.695 194.482 103.127 192.914 103.127 190.979L103.127 180.013C103.127 178.021 104.742 176.405 106.735 176.405V176.405C118.692 176.405 128.384 166.712 128.384 154.756V141.5C128.384 119.256 146.417 101.223 168.662 101.223V101.223Z" fill="white"/>
</g>
<defs>
<clipPath id="clip0">
<rect width="276" height="310" fill="white"/>
</clipPath>
</defs>
</svg>
